STARTFONT 2.1
COMMENT $XConsortium: luIS18.bdf,v 1.7 94/04/02 16:23:32 gildea Exp $
COMMENT  (c) Copyright Bigelow & Holmes 1986, 1985. Lucida is a registered
COMMENT  trademark of Bigelow & Holmes. See LEGAL NOTICE file for terms 
COMMENT  of the license. 
COMMENT  
COMMENT  Translation to ISO8859-2 by Cub Soft;  Petr.Kolar@vslib.cz
COMMENT  
FONT -B&H-Lucida-Medium-I-Normal-Sans-25-180-100-100-P-141-ISO8859-2
SIZE 18 100 100
FONTBOUNDINGBOX 48 28 -15 -5
STARTPROPERTIES 20
COMMENT Begin LogicalFontDescription
FONTNAME_REGISTRY ""
FOUNDRY "B&H"
FAMILY_NAME "Lucida"
WEIGHT_NAME "Medium"
SLANT "I"
SETWIDTH_NAME "Normal"
ADD_STYLE_NAME "Sans"
PIXEL_SIZE 25
POINT_SIZE 180
RESOLUTION_X 100
RESOLUTION_Y 100
SPACING "P"
AVERAGE_WIDTH 141
CHARSET_REGISTRY "ISO8859"
CHARSET_ENCODING "2"
COMMENT END LogicalFontDescription
FONT_ASCENT 23
FONT_DESCENT 6
DEFAULT_CHAR 0
COPYRIGHT "Copyright Bigelow & Holmes 1986, 1985., Copyright 1996 Cub Soft"
FACE_NAME "Lucida Sans Italic"
ENDPROPERTIES
CHARS 191
STARTCHAR space
ENCODING 32
SWIDTH 316 0
DWIDTH 8 0
BBX 1 1 0 0
BITMAP
00
ENDCHAR
STARTCHAR exclam
ENCODING 33
SWIDTH 193 0
DWIDTH 8 0
BBX 6 18 3 0
BITMAP
1c
1c
1c
18
18
18
38
30
30
30
30
20
60
00
00
00
e0
e0
ENDCHAR
STARTCHAR quotedbl
ENCODING 34
SWIDTH 361 0
DWIDTH 9 0
BBX 7 6 4 12
BITMAP
ce
ce
cc
cc
cc
cc
ENDCHAR
STARTCHAR numbersign
ENCODING 35
SWIDTH 633 0
DWIDTH 16 0
BBX 15 18 2 0
BITMAP
00c6
008c
018c
0118
0318
7ffe
7ffe
0620
0460
0c40
08c0
fffc
fffc
3180
3380
6300
6700
c600
ENDCHAR
STARTCHAR dollar
ENCODING 36
SWIDTH 633 0
DWIDTH 16 0
BBX 12 22 3 -2
BITMAP
0180
0180
03f0
0ff0
1f90
3900
3100
3300
3a00
1e00
0e00
0700
0580
04c0
04c0
04c0
0cc0
89c0
ff80
fe00
0800
1800
ENDCHAR
STARTCHAR percent
ENCODING 37
SWIDTH 741 0
DWIDTH 19 0
BBX 18 18 2 0
BITMAP
0f01c0
1f8300
398600
318600
318c00
219800
333000
3f6000
1ec000
019e00
033f00
037300
066300
0c4300
184300
306600
607e00
c03800
ENDCHAR
STARTCHAR ampersand
ENCODING 38
SWIDTH 701 0
DWIDTH 18 0
BBX 16 18 2 0
BITMAP
00f8
01fc
038c
030c
031c
0338
03f0
07e0
1f83
7983
71c7
e0c6
e0e6
e07c
e038
7078
7fdc
1f1e
ENDCHAR
STARTCHAR apostrophe
ENCODING 39
SWIDTH 217 0
DWIDTH 5 0
BBX 4 6 4 12
BITMAP
70
70
70
60
60
c0
ENDCHAR
STARTCHAR parenleft
ENCODING 40
SWIDTH 325 0
DWIDTH 8 0
BBX 8 22 2 -4
BITMAP
01
03
06
0c
1c
18
30
70
60
60
e0
e0
c0
c0
c0
c0
c0
c0
60
60
30
10
ENDCHAR
STARTCHAR parenright
ENCODING 41
SWIDTH 325 0
DWIDTH 8 0
BBX 8 22 1 -4
BITMAP
08
0c
06
06
03
03
03
03
03
03
03
07
07
06
0e
0c
1c
18
30
60
c0
80
ENDCHAR
STARTCHAR asterisk
ENCODING 42
SWIDTH 470 0
DWIDTH 12 0
BBX 9 9 4 9
BITMAP
0c00
0c00
4800
eb80
3700
1800
2400
e600
4400
ENDCHAR
STARTCHAR plus
ENCODING 43
SWIDTH 633 0
DWIDTH 16 0
BBX 15 15 2 0
BITMAP
00c0
00c0
0180
0180
0180
0180
fffe
fffe
0300
0300
0300
0300
0300
0600
0600
ENDCHAR
STARTCHAR comma
ENCODING 44
SWIDTH 316 0
DWIDTH 8 0
BBX 4 8 2 -5
BITMAP
70
70
70
20
20
60
60
c0
ENDCHAR
STARTCHAR minus
ENCODING 45
SWIDTH 633 0
DWIDTH 16 0
BBX 15 2 2 6
BITMAP
fffe
fffe
ENDCHAR
STARTCHAR period
ENCODING 46
SWIDTH 316 0
DWIDTH 8 0
BBX 4 2 2 0
BITMAP
70
e0
ENDCHAR
STARTCHAR slash
ENCODING 47
SWIDTH 482 0
DWIDTH 12 0
BBX 16 22 0 -4
BITMAP
0003
0006
000c
000c
0018
0038
0030
0060
0060
00c0
0180
0180
0300
0600
0600
0c00
1c00
1800
3000
3000
6000
c000
ENDCHAR
STARTCHAR zero
ENCODING 48
SWIDTH 633 0
DWIDTH 16 0
BBX 13 18 3 0
BITMAP
03e0
07f0
1c38
1818
3018
7018
6018
6018
e018
e018
e038
c030
c070
c060
e0e0
71c0
7f80
1e00
ENDCHAR
STARTCHAR one
ENCODING 49
SWIDTH 633 0
DWIDTH 16 0
BBX 6 18 7 0
BITMAP
7c
fc
18
18
18
38
38
30
30
30
70
70
60
60
60
e0
e0
c0
ENDCHAR
STARTCHAR two
ENCODING 50
SWIDTH 633 0
DWIDTH 16 0
BBX 14 18 2 0
BITMAP
07f0
0ff8
183c
001c
001c
001c
0018
0038
0070
00e0
0380
0700
0c00
3800
7000
7000
ffe0
ffe0
ENDCHAR
STARTCHAR three
ENCODING 51
SWIDTH 633 0
DWIDTH 16 0
BBX 13 18 3 0
BITMAP
0fc0
0ff0
1870
0038
0038
0070
00e0
0fc0
1f80
01e0
00e0
0060
0060
0060
00e0
c1c0
ff80
7e00
ENDCHAR
STARTCHAR four
ENCODING 52
SWIDTH 633 0
DWIDTH 16 0
BBX 13 18 2 0
BITMAP
0038
0078
00f0
01f0
03b0
0730
0e70
1c60
1860
3060
6060
fff8
fff8
00c0
00c0
01c0
01c0
0180
ENDCHAR
STARTCHAR five
ENCODING 53
SWIDTH 633 0
DWIDTH 16 0
BBX 13 18 3 0
BITMAP
0ff8
1ff8
1800
1800
1800
1000
3f00
3fc0
01e0
00e0
0060
0060
0060
00e0
00c0
c3c0
ff80
fe00
ENDCHAR
STARTCHAR six
ENCODING 54
SWIDTH 633 0
DWIDTH 16 0
BBX 14 18 3 0
BITMAP
01f8
07fc
0e08
1800
3800
3000
67c0
7fe0
f870
e030
e030
e030
c030
e070
e0e0
71c0
7f80
1f00
ENDCHAR
STARTCHAR seven
ENCODING 55
SWIDTH 633 0
DWIDTH 16 0
BBX 14 18 4 0
BITMAP
3ffc
3ffc
003c
0078
00f0
00e0
01c0
0380
0700
0e00
1c00
1c00
3800
3800
7000
7000
e000
e000
ENDCHAR
STARTCHAR eight
ENCODING 56
SWIDTH 633 0
DWIDTH 16 0
BBX 13 18 3 0
BITMAP
03e0
0ff0
1c30
1838
3830
3830
1ce0
1fc0
0f80
3fc0
71e0
60e0
e060
c060
e0e0
e1c0
7f80
3f00
ENDCHAR
STARTCHAR nine
ENCODING 57
SWIDTH 633 0
DWIDTH 16 0
BBX 14 18 3 0
BITMAP
03e0
0ff0
1c38
3818
3018
301c
7018
7018
7038
3878
3ff8
0fb0
0030
0060
00e0
c1c0
ff80
7e00
ENDCHAR
STARTCHAR colon
ENCODING 58
SWIDTH 316 0
DWIDTH 8 0
BBX 5 13 3 0
BITMAP
38
38
00
00
00
00
00
00
00
00
00
e0
e0
ENDCHAR
STARTCHAR semicolon
ENCODING 59
SWIDTH 316 0
DWIDTH 8 0
BBX 6 18 2 -5
BITMAP
1c
1c
00
00
00
00
00
00
00
00
00
70
60
20
60
60
c0
80
ENDCHAR
STARTCHAR less
ENCODING 60
SWIDTH 633 0
DWIDTH 16 0
BBX 16 15 2 0
BITMAP
0001
0007
001e
0078
03e0
0f80
3c00
f000
3c00
1e00
0780
01e0
00f0
0038
0008
ENDCHAR
STARTCHAR equal
ENCODING 61
SWIDTH 633 0
DWIDTH 16 0
BBX 16 6 1 4
BITMAP
7fff
7fff
0000
0000
fffe
fffe
ENDCHAR
STARTCHAR greater
ENCODING 62
SWIDTH 633 0
DWIDTH 16 0
BBX 16 15 1 0
BITMAP
1000
1c00
0f00
0780
01e0
0078
003c
000f
003c
01f0
07c0
1e00
7800
e000
8000
ENDCHAR
STARTCHAR question
ENCODING 63
SWIDTH 464 0
DWIDTH 12 0
BBX 10 18 3 0
BITMAP
3f00
7f80
41c0
01c0
01c0
0180
0380
0700
0e00
1c00
3800
3000
7000
0000
0000
0000
e000
e000
ENDCHAR
STARTCHAR at
ENCODING 64
SWIDTH 858 0
DWIDTH 21 0
BBX 19 18 3 0
BITMAP
00fc00
03ff00
0f0380
1c01c0
30fcc0
21fc40
630860
460860
c61860
843840
8c70c0
8cd980
cf9f80
471e00
600000
381000
1ff000
07c000
ENDCHAR
STARTCHAR A
ENCODING 65
SWIDTH 687 0
DWIDTH 17 0
BBX 16 18 1 0
BITMAP
0038
0078
0078
00f8
01d8
019c
039c
030c
070c
060c
0c0e
0ffe
1ffe
3806
3006
7007
6007
e007
ENDCHAR
STARTCHAR B
ENCODING 66
SWIDTH 593 0
DWIDTH 15 0
BBX 13 18 2 0
BITMAP
1fe0
1ff8
1c38
1838
1838
3838
3870
38e0
3f80
3fe0
70f0
7070
7030
6070
6070
e1e0
ffe0
ff80
ENDCHAR
STARTCHAR C
ENCODING 67
SWIDTH 679 0
DWIDTH 17 0
BBX 17 18 2 0
BITMAP
00ff00
03ff80
0f0180
1e0000
3c0000
380000
700000
700000
e00000
e00000
e00000
e00000
e00000
e00000
700000
780c00
3ffc00
0fe000
ENDCHAR
STARTCHAR D
ENCODING 68
SWIDTH 743 0
DWIDTH 19 0
BBX 17 18 2 0
BITMAP
1ffc00
1ffe00
1c1f00
180780
180380
380380
380380
380380
300380
300380
700300
700700
700600
600e00
601c00
e07800
fff000
ffc000
ENDCHAR
STARTCHAR E
ENCODING 69
SWIDTH 547 0
DWIDTH 14 0
BBX 14 18 2 0
BITMAP
0ffc
1ffc
1c00
1c00
1800
1800
3800
3800
3fe0
3fe0
3000
7000
7000
7000
6000
6000
ffe0
ffe0
ENDCHAR
STARTCHAR F
ENCODING 70
SWIDTH 536 0
DWIDTH 13 0
BBX 14 18 2 0
BITMAP
0ffc
1ffc
1c00
1c00
1800
1800
3800
3800
3fe0
3fe0
3000
7000
7000
7000
6000
6000
e000
e000
ENDCHAR
STARTCHAR G
ENCODING 71
SWIDTH 702 0
DWIDTH 18 0
BBX 16 18 3 0
BITMAP
00fe
07ff
0f03
1c00
3800
3000
7000
6000
e000
e000
e00c
e00c
e01c
e01c
701c
7838
3ff8
0fc0
ENDCHAR
STARTCHAR H
ENCODING 72
SWIDTH 735 0
DWIDTH 18 0
BBX 17 18 2 0
BITMAP
1c0380
1c0380
1c0380
180300
180300
380700
380700
380700
3ffe00
3ffe00
700600
700e00
700e00
600c00
600c00
e01c00
e01c00
e01c00
ENDCHAR
STARTCHAR I
ENCODING 73
SWIDTH 289 0
DWIDTH 7 0
BBX 6 18 2 0
BITMAP
1c
1c
1c
18
18
38
38
38
30
30
70
70
70
60
60
e0
e0
e0
ENDCHAR
STARTCHAR J
ENCODING 74
SWIDTH 408 0
DWIDTH 10 0
BBX 12 22 0 -4
BITMAP
0070
0070
0070
0060
0060
00e0
00e0
00e0
00c0
00c0
01c0
01c0
01c0
0180
0180
0380
0380
0300
0300
8600
fe00
f800
ENDCHAR
STARTCHAR K
ENCODING 75
SWIDTH 635 0
DWIDTH 16 0
BBX 16 18 2 0
BITMAP
0c07
1c0c
1c18
1c30
1860
18c0
3980
3b00
3e00
3700
3300
7180
71c0
70c0
6060
6070
e030
e018
ENDCHAR
STARTCHAR L
ENCODING 76
SWIDTH 545 0
DWIDTH 14 0
BBX 11 18 3 0
BITMAP
1c00
1c00
1c00
1800
1800
3800
3800
3800
3000
3000
7000
7000
7000
6000
6000
e000
ffe0
ffe0
ENDCHAR
STARTCHAR M
ENCODING 77
SWIDTH 828 0
DWIDTH 21 0
BBX 20 18 2 0
BITMAP
0e00f0
1e00f0
1f01e0
1f01e0
1f0360
1b07e0
3b06e0
330cc0
330cc0
3398c0
3399c0
71b1c0
61f180
61e180
61c180
61c380
c00380
c00300
ENDCHAR
STARTCHAR N
ENCODING 78
SWIDTH 741 0
DWIDTH 19 0
BBX 17 18 3 0
BITMAP
1c0180
1e0180
1e0380
1e0300
1f0300
3b0300
338300
318700
31c600
31c600
70c600
60e600
606e00
607c00
603c00
e03c00
c03c00
c01c00
ENDCHAR
STARTCHAR O
ENCODING 79
SWIDTH 777 0
DWIDTH 19 0
BBX 18 18 3 0
BITMAP
00fc00
03ff00
0f0700
1c0380
380180
3801c0
7001c0
6001c0
e00180
e00380
e00380
e00300
e00700
e00e00
701c00
787800
3ff000
0fc000
ENDCHAR
STARTCHAR P
ENCODING 80
SWIDTH 575 0
DWIDTH 14 0
BBX 14 18 2 0
BITMAP
0ff0
1ff8
1c1c
1c1c
181c
181c
3818
3838
38f0
3fe0
3f00
7000
7000
7000
6000
6000
e000
e000
ENDCHAR
STARTCHAR Q
ENCODING 81
SWIDTH 777 0
DWIDTH 19 0
BBX 18 23 3 -5
BITMAP
00fc00
03ff00
0f0700
1c0380
380180
3801c0
7001c0
6001c0
e00180
e00380
e00380
e00380
e00700
e00e00
701e00
787c00
3ff000
0fe000
007000
003c00
001f80
000f00
000300
ENDCHAR
STARTCHAR R
ENCODING 82
SWIDTH 632 0
DWIDTH 16 0
BBX 14 18 2 0
BITMAP
0ff0
1ffc
1c1c
1c1c
181c
181c
3838
3870
3fe0
3f80
31c0
71c0
70e0
60e0
6070
6070
e038
e038
ENDCHAR
STARTCHAR S
ENCODING 83
SWIDTH 553 0
DWIDTH 14 0
BBX 14 18 2 0
BITMAP
03f8
07fc
0e0c
1c00
1c00
1c00
1e00
0f00
0780
03c0
01e0
0070
0070
0070
0070
c0e0
ffc0
7f00
ENDCHAR
STARTCHAR T
ENCODING 84
SWIDTH 623 0
DWIDTH 16 0
BBX 16 18 3 0
BITMAP
ffff
ffff
0380
0380
0380
0300
0300
0700
0700
0700
0600
0600
0e00
0e00
0e00
0c00
0c00
1c00
ENDCHAR
STARTCHAR U
ENCODING 85
SWIDTH 693 0
DWIDTH 17 0
BBX 15 18 3 0
BITMAP
3806
380e
380e
300c
300c
700c
701c
701c
6018
6018
e018
e038
e030
e030
e070
f0e0
7fc0
3f80
ENDCHAR
STARTCHAR V
ENCODING 86
SWIDTH 687 0
DWIDTH 17 0
BBX 16 18 4 0
BITMAP
e007
e006
e00e
600c
601c
7038
7030
7070
3060
30e0
38c0
39c0
3980
1b00
1f00
1e00
1e00
1c00
ENDCHAR
STARTCHAR W
ENCODING 87
SWIDTH 886 0
DWIDTH 22 0
BBX 21 18 4 0
BITMAP
c07018
c07030
e0f030
e0f060
e0f060
e1b0e0
e1b0c0
e331c0
e33180
e63380
663300
6c3700
6c3600
7c3e00
783c00
783c00
703800
703800
ENDCHAR
STARTCHAR X
ENCODING 88
SWIDTH 620 0
DWIDTH 16 0
BBX 18 18 0 0
BITMAP
0e01c0
060380
070700
030e00
039c00
039800
01f000
01f000
00e000
01e000
03f000
037000
063800
0c3800
1c1800
381c00
700c00
e00e00
ENDCHAR
STARTCHAR Y
ENCODING 89
SWIDTH 608 0
DWIDTH 15 0
BBX 15 18 4 0
BITMAP
e00e
601c
7038
3030
3860
38c0
1dc0
1f80
0f00
0e00
0e00
0e00
0c00
0c00
1c00
1c00
1c00
1800
ENDCHAR
STARTCHAR Z
ENCODING 90
SWIDTH 578 0
DWIDTH 14 0
BBX 16 18 1 0
BITMAP
0fff
0fff
000e
001c
0038
0078
0070
00e0
01c0
0380
0700
0e00
1e00
3c00
3800
7000
fff8
fff8
ENDCHAR
STARTCHAR bracketleft
ENCODING 91
SWIDTH 325 0
DWIDTH 8 0
BBX 9 22 2 -4
BITMAP
0f80
0f80
0c00
0c00
1c00
1800
1800
1800
1800
3800
3000
3000
3000
3000
7000
6000
6000
6000
6000
c000
f800
f800
ENDCHAR
STARTCHAR backslash
ENCODING 92
SWIDTH 482 0
DWIDTH 12 0
BBX 7 22 4 -4
BITMAP
c0
c0
40
60
60
60
20
30
30
30
30
18
18
18
18
08
0c
0c
0c
04
06
06
ENDCHAR
STARTCHAR bracketright
ENCODING 93
SWIDTH 325 0
DWIDTH 8 0
BBX 9 22 1 -4
BITMAP
0f80
0f80
0180
0300
0300
0300
0300
0700
0600
0600
0600
0600
0e00
0c00
0c00
0c00
0c00
1c00
1800
1800
f800
f800
ENDCHAR
STARTCHAR asciicircum
ENCODING 94
SWIDTH 633 0
DWIDTH 16 0
BBX 14 15 2 3
BITMAP
0040
0040
00e0
01e0
01e0
0360
0730
0630
0c30
1c10
1818
3818
7018
600c
e00c
ENDCHAR
STARTCHAR underscore
ENCODING 95
SWIDTH 500 0
DWIDTH 13 0
BBX 10 2 1 -3
BITMAP
ffc0
ffc0
ENDCHAR
STARTCHAR grave
ENCODING 96
SWIDTH 572 0
DWIDTH 14 0
BBX 4 4 9 14
BITMAP
e0
60
60
30
ENDCHAR
STARTCHAR a
ENCODING 97
SWIDTH 608 0
DWIDTH 15 0
BBX 13 13 2 0
BITMAP
03f8
07f8
1e38
3830
3030
7070
60f0
e1f0
e1e0
e360
e760
fce0
78e0
ENDCHAR
STARTCHAR b
ENCODING 98
SWIDTH 608 0
DWIDTH 15 0
BBX 13 18 3 0
BITMAP
0c00
1c00
1c00
1800
1800
18f0
39f8
3738
3638
3c38
3c38
7830
7070
6060
60e0
63c0
ff00
fe00
ENDCHAR
STARTCHAR c
ENCODING 99
SWIDTH 503 0
DWIDTH 13 0
BBX 11 13 2 0
BITMAP
03e0
0fe0
1c20
3800
7000
6000
e000
e000
e000
e000
e0c0
7f80
3f00
ENDCHAR
STARTCHAR d
ENCODING 100
SWIDTH 608 0
DWIDTH 15 0
BBX 15 18 2 0
BITMAP
000e
000e
000c
000c
001c
01fc
07fc
0e18
1c18
3838
7038
6070
e0f0
e1f0
e3f0
e770
fe60
7860
ENDCHAR
STARTCHAR e
ENCODING 101
SWIDTH 529 0
DWIDTH 13 0
BBX 11 13 2 0
BITMAP
07c0
0fe0
18e0
30e0
60c0
6180
ff00
fc00
c000
e020
e0c0
7fc0
3f00
ENDCHAR
STARTCHAR f
ENCODING 102
SWIDTH 383 0
DWIDTH 10 0
BBX 12 25 2 -5
BITMAP
01f0
03f0
0700
0600
0e00
0c00
0c00
7f80
7f80
1800
1800
1800
3800
3800
3000
3000
3000
7000
7000
7000
6000
6000
e000
e000
e000
ENDCHAR
STARTCHAR g
ENCODING 103
SWIDTH 608 0
DWIDTH 15 0
BBX 14 18 1 -5
BITMAP
01fc
07fc
0f18
1c18
1818
3838
3038
7070
70f0
71b0
7330
3e70
3c60
0060
0060
c0c0
ff80
7e00
ENDCHAR
STARTCHAR h
ENCODING 104
SWIDTH 620 0
DWIDTH 16 0
BBX 13 18 2 0
BITMAP
0c00
0c00
1c00
1c00
1800
1870
39f8
3bb8
3738
3e38
3c38
7830
7030
7070
6070
6060
e060
e060
ENDCHAR
STARTCHAR i
ENCODING 105
SWIDTH 289 0
DWIDTH 7 0
BBX 6 18 2 0
BITMAP
1c
1c
00
00
00
18
38
38
30
30
30
70
70
60
60
60
e0
e0
ENDCHAR
STARTCHAR j
ENCODING 106
SWIDTH 325 0
DWIDTH 8 0
BBX 12 23 -2 -5
BITMAP
0070
0070
0000
0000
0000
0060
00e0
00e0
00c0
00c0
00c0
01c0
01c0
0180
0180
0380
0380
0380
0300
0700
8e00
fc00
f800
ENDCHAR
STARTCHAR k
ENCODING 107
SWIDTH 572 0
DWIDTH 14 0
BBX 13 18 2 0
BITMAP
0c00
0c00
1c00
1800
1800
1838
3860
39c0
3380
3700
3e00
7e00
7700
6300
6380
61c0
e0e0
e070
ENDCHAR
STARTCHAR l
ENCODING 108
SWIDTH 289 0
DWIDTH 7 0
BBX 6 18 3 0
BITMAP
0c
1c
1c
18
18
18
38
38
30
30
30
70
70
60
60
60
e0
e0
ENDCHAR
STARTCHAR m
ENCODING 109
SWIDTH 934 0
DWIDTH 23 0
BBX 21 13 2 0
BITMAP
187070
19f9f8
3bbbb8
373f38
3e3e38
3c3c30
383830
707830
707070
606070
606060
606060
c0e0e0
ENDCHAR
STARTCHAR n
ENCODING 110
SWIDTH 620 0
DWIDTH 16 0
BBX 13 13 2 0
BITMAP
1870
39f8
3bb8
3738
3e38
3c38
7830
7030
7070
6070
6060
e060
e060
ENDCHAR
STARTCHAR o
ENCODING 111
SWIDTH 566 0
DWIDTH 14 0
BBX 12 13 2 0
BITMAP
07c0
0fe0
1c70
3030
7030
6030
e030
e070
e060
e0e0
e1c0
7f80
3e00
ENDCHAR
STARTCHAR p
ENCODING 112
SWIDTH 608 0
DWIDTH 15 0
BBX 14 18 2 -5
BITMAP
1c78
1cfc
1b9c
1f1c
1e1c
3e1c
3c18
3838
3030
3070
71e0
7f80
7f00
6000
6000
e000
e000
c000
ENDCHAR
STARTCHAR q
ENCODING 113
SWIDTH 608 0
DWIDTH 15 0
BBX 13 18 2 -5
BITMAP
03f8
07f8
1e38
3830
3030
7070
60f0
e1f0
e1e0
e360
e760
fce0
78e0
00c0
00c0
00c0
01c0
01c0
ENDCHAR
STARTCHAR r
ENCODING 114
SWIDTH 478 0
DWIDTH 12 0
BBX 11 13 3 0
BITMAP
38e0
39e0
3300
3600
3c00
7c00
7800
7000
6000
6000
e000
e000
e000
ENDCHAR
STARTCHAR s
ENCODING 115
SWIDTH 489 0
DWIDTH 12 0
BBX 11 13 2 0
BITMAP
07c0
1fe0
1860
3800
1c00
1e00
0f00
0780
0380
0180
c380
ff80
7e00
ENDCHAR
STARTCHAR t
ENCODING 116
SWIDTH 383 0
DWIDTH 10 0
BBX 8 16 3 0
BITMAP
18
18
18
ff
ff
30
30
30
70
70
60
60
e0
60
7c
38
ENDCHAR
STARTCHAR u
ENCODING 117
SWIDTH 620 0
DWIDTH 16 0
BBX 13 13 3 0
BITMAP
3018
3038
3030
3030
6070
6070
60f0
61e0
e3e0
c760
eee0
fce0
70c0
ENDCHAR
STARTCHAR v
ENCODING 118
SWIDTH 545 0
DWIDTH 14 0
BBX 12 13 4 0
BITMAP
c070
c060
e0e0
e0c0
6180
6380
6300
6600
6600
6c00
7c00
7800
3000
ENDCHAR
STARTCHAR w
ENCODING 119
SWIDTH 795 0
DWIDTH 20 0
BBX 18 13 3 0
BITMAP
c0c0c0
c1c180
c1c180
e3c300
e3c300
666600
666e00
6c6c00
6c7c00
787800
787800
707000
707000
ENDCHAR
STARTCHAR x
ENCODING 120
SWIDTH 541 0
DWIDTH 14 0
BBX 15 13 0 0
BITMAP
1c0e
0e1c
0638
0770
03e0
03c0
0380
07c0
0ec0
1ce0
3860
7070
e038
ENDCHAR
STARTCHAR y
ENCODING 121
SWIDTH 548 0
DWIDTH 14 0
BBX 14 18 2 -5
BITMAP
601c
7018
7030
7070
3060
30c0
31c0
3980
3b80
3b00
1e00
1e00
1c00
1800
3800
3000
6000
e000
ENDCHAR
STARTCHAR z
ENCODING 122
SWIDTH 536 0
DWIDTH 13 0
BBX 13 13 1 0
BITMAP
1ff8
1ff8
0070
00e0
01c0
0380
0700
0e00
1c00
3800
7000
ffe0
ffe0
ENDCHAR
STARTCHAR braceleft
ENCODING 123
SWIDTH 325 0
DWIDTH 8 0
BBX 9 22 2 -4
BITMAP
0380
0f00
0e00
0c00
0c00
1c00
1c00
1c00
1800
3800
f000
e000
3000
3000
3000
7000
6000
6000
c000
c000
7000
3000
ENDCHAR
STARTCHAR bar
ENCODING 124
SWIDTH 233 0
DWIDTH 6 0
BBX 6 22 1 -4
BITMAP
0c
0c
0c
08
18
18
18
18
10
30
30
30
30
20
60
60
60
60
40
c0
c0
c0
ENDCHAR
STARTCHAR braceright
ENCODING 125
SWIDTH 325 0
DWIDTH 8 0
BBX 9 22 1 -4
BITMAP
0e00
0f00
0300
0300
0300
0700
0600
0600
0600
0600
0380
0f00
0c00
1c00
1800
1800
1800
1800
3800
f000
f000
c000
ENDCHAR
STARTCHAR asciitilde
ENCODING 126
SWIDTH 633 0
DWIDTH 16 0
BBX 15 5 2 5
BITMAP
3c06
7f06
638c
c1fc
c078
ENDCHAR
STARTCHAR nobreakspace
ENCODING 160
SWIDTH 316 0
DWIDTH 8 0
BBX 1 1 0 0
BITMAP
00
ENDCHAR
STARTCHAR Aogonek
ENCODING 161
SWIDTH 687 0
DWIDTH 17 0
BBX 16 22 1 -4
BITMAP
0038
0078
0078
00f8
01d8
019c
039c
030c
070c
060c
0c0e
0ffe
1ffe
3806
3006
7007
6007
e007
0180
0300
0300
01c0
ENDCHAR
STARTCHAR breve
ENCODING 162
SWIDTH 566 0
DWIDTH 14 0
BBX 8 4 7 14
BITMAP
c3
c2
7e
78
ENDCHAR
STARTCHAR Lstroke
ENCODING 163
SWIDTH 545 0
DWIDTH 14 0
BBX 13 18 1 0
BITMAP
0700
0600
0600
0e00
0e00
0e80
0d80
0f80
1e00
7c00
fc00
9800
1800
3800
3800
3800
3ff8
3ff8
ENDCHAR
STARTCHAR currency
ENCODING 164
SWIDTH 633 0
DWIDTH 16 0
BBX 18 16 1 1
BITMAP
100180
3803c0
1de300
0ff600
071c00
0c0c00
0c0c00
180c00
180c00
180c00
181800
0c3000
1ff800
73dc00
e00e00
400400
ENDCHAR
STARTCHAR Lcaron
ENCODING 165
SWIDTH 545 0
DWIDTH 14 0
BBX 11 20 3 0
BITMAP
00e0
00e0
1ce0
1cc0
1cc0
1980
1800
3800
3800
3800
3000
3000
7000
7000
7000
6000
6000
e000
ffe0
ffe0
ENDCHAR
STARTCHAR Sacute
ENCODING 166
SWIDTH 553 0
DWIDTH 14 0
BBX 15 23 2 0
BITMAP
000e
0018
0030
0060
0000
03f8
07fc
0e0c
1c00
1c00
1c00
1e00
0f00
0780
03c0
01e0
0070
0070
0070
0070
c0e0
ffc0
7f00
ENDCHAR
STARTCHAR section
ENCODING 167
SWIDTH 633 0
DWIDTH 16 0
BBX 13 23 2 -5
BITMAP
03f8
07f8
0e08
1c00
1800
1c00
0e00
0f00
1fc0
38e0
3070
3030
3830
3c70
1fe0
07c0
01e0
0060
0060
00e0
c1c0
ffc0
7f00
ENDCHAR
STARTCHAR diaeresis
ENCODING 168
SWIDTH 566 0
DWIDTH 14 0
BBX 7 2 7 16
BITMAP
c6
c6
ENDCHAR
STARTCHAR Scaron
ENCODING 169
SWIDTH 553 0
DWIDTH 14 0
BBX 14 23 2 0
BITMAP
031c
01b8
01b0
00e0
0000
03f8
07fc
0e0c
1c00
1c00
1c00
1e00
0f00
0780
03c0
01e0
0070
0070
0070
0070
c0e0
ffc0
7f00
ENDCHAR
STARTCHAR Scedilla
ENCODING 170
SWIDTH 553 0
DWIDTH 14 0
BBX 14 23 2 -5
BITMAP
03f8
07fc
0e0c
1c00
1c00
1c00
1e00
0f00
0780
03c0
01e0
0070
0070
0070
0070
c0e0
ffc0
7f00
0100
0300
0180
0180
0700
ENDCHAR
STARTCHAR Tcaron
ENCODING 171
SWIDTH 623 0
DWIDTH 16 0
BBX 16 23 3 0
BITMAP
0638
0370
0360
01c0
0000
ffff
ffff
0380
0380
0380
0300
0300
0700
0700
0700
0600
0600
0e00
0e00
0e00
0c00
0c00
1c00
ENDCHAR
STARTCHAR Zacute
ENCODING 172
SWIDTH 578 0
DWIDTH 14 0
BBX 16 23 1 0
BITMAP
0007
000c
0018
0030
0000
0fff
0fff
000e
001c
0038
0078
0070
00e0
01c0
0380
0700
0e00
1e00
3c00
3800
7000
fff8
fff8
ENDCHAR
STARTCHAR hyphen
ENCODING 173
SWIDTH 313 0
DWIDTH 8 0
BBX 6 2 2 7
BITMAP
fc
fc
ENDCHAR
STARTCHAR Zcaron
ENCODING 174
SWIDTH 578 0
DWIDTH 14 0
BBX 16 23 1 0
BITMAP
018e
00dc
00d8
0070
0000
0fff
0fff
000e
001c
0038
0078
0070
00e0
01c0
0380
0700
0e00
1e00
3c00
3800
7000
fff8
fff8
ENDCHAR
STARTCHAR Zabovedot
ENCODING 175
SWIDTH 578 0
DWIDTH 14 0
BBX 16 21 1 0
BITMAP
0070
0070
0000
0fff
0fff
000e
001c
0038
0078
0070
00e0
01c0
0380
0700
0e00
1e00
3c00
3800
7000
fff8
fff8
ENDCHAR
STARTCHAR degree
ENCODING 176
SWIDTH 269 0
DWIDTH 7 0
BBX 4 4 5 14
BITMAP
70
90
90
70
ENDCHAR
STARTCHAR aogonek
ENCODING 177
SWIDTH 608 0
DWIDTH 15 0
BBX 13 17 2 -4
BITMAP
03f8
07f8
1e38
3830
3030
7070
60f0
e1f0
e1e0
e360
e760
fce0
78e0
0300
0600
0600
0380
ENDCHAR
STARTCHAR ogonek
ENCODING 178
SWIDTH 566 0
DWIDTH 14 0
BBX 4 4 4 -4
BITMAP
60
c0
c0
70
ENDCHAR
STARTCHAR lstroke
ENCODING 179
SWIDTH 289 0
DWIDTH 7 0
BBX 9 18 1 0
BITMAP
0600
0600
0600
0e00
0e00
0c80
0f80
0f00
1c00
7800
d800
9800
3800
3800
3800
3000
3000
7000
ENDCHAR
STARTCHAR acute
ENCODING 180
SWIDTH 566 0
DWIDTH 14 0
BBX 6 4 9 14
BITMAP
1c
30
60
c0
ENDCHAR
STARTCHAR lcaron
ENCODING 181
SWIDTH 480 0
DWIDTH 12 0
BBX 11 20 3 0
BITMAP
00e0
00e0
0ce0
1cc0
1cc0
1980
1800
1800
3800
3800
3000
3000
3000
7000
7000
6000
6000
6000
e000
e000
ENDCHAR
STARTCHAR sacute
ENCODING 182
SWIDTH 489 0
DWIDTH 12 0
BBX 13 18 2 0
BITMAP
0038
0060
00c0
0180
0000
07c0
1fe0
1860
3800
1c00
1e00
0f00
0780
0380
0180
c380
ff80
7e00
ENDCHAR
STARTCHAR caron
ENCODING 183
SWIDTH 568 0
DWIDTH 14 0
BBX 8 4 7 14
BITMAP
c7
6e
6c
38
ENDCHAR
STARTCHAR cedilla
ENCODING 184
SWIDTH 566 0
DWIDTH 14 0
BBX 4 5 5 -5
BITMAP
20
60
30
30
e0
ENDCHAR
STARTCHAR scaron
ENCODING 185
SWIDTH 489 0
DWIDTH 12 0
BBX 12 18 2 0
BITMAP
0c70
06e0
06c0
0380
0000
07c0
1fe0
1860
3800
1c00
1e00
0f00
0780
0380
0180
c380
ff80
7e00
ENDCHAR
STARTCHAR scedilla
ENCODING 186
SWIDTH 489 0
DWIDTH 12 0
BBX 11 18 2 -5
BITMAP
07c0
1fe0
1860
3800
1c00
1e00
0f00
0780
0380
0180
c380
ff80
7e00
0200
0600
0300
0300
0e00
ENDCHAR
STARTCHAR tcaron
ENCODING 187
SWIDTH 480 0
DWIDTH 12 0
BBX 10 20 3 0
BITMAP
01c0
01c0
01c0
0180
1980
1b00
1800
ff00
ff00
3000
3000
3000
7000
7000
6000
6000
e000
6000
7c00
3800
ENDCHAR
STARTCHAR zacute
ENCODING 188
SWIDTH 536 0
DWIDTH 13 0
BBX 14 18 1 0
BITMAP
001c
0030
0060
00c0
0000
1ff8
1ff8
0070
00e0
01c0
0380
0700
0e00
1c00
3800
7000
ffe0
ffe0
ENDCHAR
STARTCHAR doubleacute
ENCODING 189
SWIDTH 566 0
DWIDTH 14 0
BBX 8 4 7 14
BITMAP
1b
36
6c
d8
ENDCHAR
STARTCHAR zcaron
ENCODING 190
SWIDTH 536 0
DWIDTH 13 0
BBX 13 18 1 0
BITMAP
0638
0370
0360
01c0
0000
1ff8
1ff8
0070
00e0
01c0
0380
0700
0e00
1c00
3800
7000
ffe0
ffe0
ENDCHAR
STARTCHAR zabovedot
ENCODING 191
SWIDTH 536 0
DWIDTH 13 0
BBX 13 16 1 0
BITMAP
01c0
01c0
0000
1ff8
1ff8
0070
00e0
01c0
0380
0700
0e00
1c00
3800
7000
ffe0
ffe0
ENDCHAR
STARTCHAR Racute
ENCODING 192
SWIDTH 632 0
DWIDTH 16 0
BBX 14 23 2 0
BITMAP
001c
0030
0060
00c0
0000
0ff0
1ffc
1c1c
1c1c
181c
181c
3838
3870
3fe0
3f80
31c0
71c0
70e0
60e0
6070
6070
e038
e038
ENDCHAR
STARTCHAR Aacute
ENCODING 193
SWIDTH 687 0
DWIDTH 17 0
BBX 16 23 1 0
BITMAP
0007
000c
0018
0030
0000
0038
0078
0078
00f8
01d8
019c
039c
030c
070c
060c
0c0e
0ffe
1ffe
3806
3006
7007
6007
e007
ENDCHAR
STARTCHAR Acircumflex
ENCODING 194
SWIDTH 687 0
DWIDTH 17 0
BBX 16 23 1 0
BITMAP
003c
007c
00ec
01c6
0000
0038
0078
0078
00f8
01d8
019c
039c
030c
070c
060c
0c0e
0ffe
1ffe
3806
3006
7007
6007
e007
ENDCHAR
STARTCHAR Abreve
ENCODING 195
SWIDTH 687 0
DWIDTH 17 0
BBX 17 23 1 0
BITMAP
006180
006100
003f00
003c00
000000
003800
007800
007800
00f800
01d800
019c00
039c00
030c00
070c00
060c00
0c0e00
0ffe00
1ffe00
380600
300600
700700
600700
e00700
ENDCHAR
STARTCHAR Adiaeresis
ENCODING 196
SWIDTH 687 0
DWIDTH 17 0
BBX 16 21 1 0
BITMAP
00c6
00c6
0000
0038
0078
0078
00f8
01d8
019c
039c
030c
070c
060c
0c0e
0ffe
1ffe
3806
3006
7007
6007
e007
ENDCHAR
STARTCHAR Lacute
ENCODING 197
SWIDTH 545 0
DWIDTH 14 0
BBX 11 23 3 0
BITMAP
01c0
0300
0600
0c00
0000
1c00
1c00
1c00
1800
1800
3800
3800
3800
3000
3000
7000
7000
7000
6000
6000
e000
ffe0
ffe0
ENDCHAR
STARTCHAR Cacute
ENCODING 198
SWIDTH 679 0
DWIDTH 17 0
BBX 17 23 2 0
BITMAP
000700
000c00
001800
003000
000000
00ff00
03ff80
0f0180
1e0000
3c0000
380000
700000
700000
e00000
e00000
e00000
e00000
e00000
e00000
700000
780c00
3ffc00
0fe000
ENDCHAR
STARTCHAR Ccedilla
ENCODING 199
SWIDTH 679 0
DWIDTH 17 0
BBX 17 23 2 -5
BITMAP
00ff00
03ff80
0f0180
1e0000
3c0000
380000
700000
700000
e00000
e00000
e00000
e00000
e00000
e00000
700000
780c00
3ffc00
0fe000
020000
060000
030000
030000
0e0000
ENDCHAR
STARTCHAR Ccaron
ENCODING 200
SWIDTH 679 0
DWIDTH 17 0
BBX 17 23 2 0
BITMAP
018e00
00dc00
00d800
007000
000000
00ff00
03ff80
0f0180
1e0000
3c0000
380000
700000
700000
e00000
e00000
e00000
e00000
e00000
e00000
700000
780c00
3ffc00
0fe000
ENDCHAR
STARTCHAR Eacute
ENCODING 201
SWIDTH 547 0
DWIDTH 14 0
BBX 14 23 2 0
BITMAP
0070
00c0
0180
0300
0000
0ffc
1ffc
1c00
1c00
1800
1800
3800
3800
3fe0
3fe0
3000
7000
7000
7000
6000
6000
ffe0
ffe0
ENDCHAR
STARTCHAR Eogonek
ENCODING 202
SWIDTH 547 0
DWIDTH 14 0
BBX 14 22 2 -4
BITMAP
0ffc
1ffc
1c00
1c00
1800
1800
3800
3800
3fe0
3fe0
3000
7000
7000
7000
6000
6000
ffe0
ffe0
0300
0600
0600
0380
ENDCHAR
STARTCHAR Ediaeresis
ENCODING 203
SWIDTH 547 0
DWIDTH 14 0
BBX 14 21 2 0
BITMAP
0630
0630
0000
0ffc
1ffc
1c00
1c00
1800
1800
3800
3800
3fe0
3fe0
3000
7000
7000
7000
6000
6000
ffe0
ffe0
ENDCHAR
STARTCHAR Ecaron
ENCODING 204
SWIDTH 547 0
DWIDTH 14 0
BBX 14 23 2 0
BITMAP
0638
0370
0360
01c0
0000
0ffc
1ffc
1c00
1c00
1800
1800
3800
3800
3fe0
3fe0
3000
7000
7000
7000
6000
6000
ffe0
ffe0
ENDCHAR
STARTCHAR Iacute
ENCODING 205
SWIDTH 289 0
DWIDTH 7 0
BBX 9 23 2 0
BITMAP
0380
0600
0c00
1800
0000
1c00
1c00
1c00
1800
1800
3800
3800
3800
3000
3000
7000
7000
7000
6000
6000
e000
e000
e000
ENDCHAR
STARTCHAR Icircumflex
ENCODING 206
SWIDTH 289 0
DWIDTH 7 0
BBX 9 23 2 0
BITMAP
0f00
1f00
3b00
7180
0000
1c00
1c00
1c00
1800
1800
3800
3800
3800
3000
3000
7000
7000
7000
6000
6000
e000
e000
e000
ENDCHAR
STARTCHAR Dcaron
ENCODING 207
SWIDTH 743 0
DWIDTH 19 0
BBX 17 23 2 0
BITMAP
031c00
01b800
01b000
00e000
000000
1ffc00
1ffe00
1c1f00
180780
180380
380380
380380
380380
300380
300380
700300
700700
700600
600e00
601c00
e07800
fff000
ffc000
ENDCHAR
STARTCHAR Dstroke
ENCODING 208
SWIDTH 743 0
DWIDTH 19 0
BBX 18 18 1 0
BITMAP
0ffe00
0fff00
0e0f80
0c03c0
0c01c0
0c01c0
1c01c0
1c01c0
ffc1c0
ff81c0
180180
380380
380300
300700
300e00
303c00
7ff800
7fe000
ENDCHAR
STARTCHAR Nacute
ENCODING 209
SWIDTH 741 0
DWIDTH 19 0
BBX 17 23 3 0
BITMAP
000700
000c00
001800
003000
000000
1c0180
1e0180
1e0380
1e0300
1f0300
3b0300
338300
318700
31c600
31c600
70c600
60e600
606e00
607c00
603c00
e03c00
c03c00
c01c00
ENDCHAR
STARTCHAR Ncaron
ENCODING 210
SWIDTH 741 0
DWIDTH 19 0
BBX 17 23 3 0
BITMAP
018e00
00dc00
00d800
007000
000000
1c0180
1e0180
1e0380
1e0300
1f0300
3b0300
338300
318700
31c600
31c600
70c600
60e600
606e00
607c00
603c00
e03c00
c03c00
c01c00
ENDCHAR
STARTCHAR Oacute
ENCODING 211
SWIDTH 777 0
DWIDTH 19 0
BBX 18 23 3 0
BITMAP
000e00
001800
003000
006000
000000
00fc00
03ff00
0f0700
1c0380
380180
3801c0
7001c0
6001c0
e00180
e00380
e00380
e00300
e00700
e00e00
701c00
787800
3ff000
0fc000
ENDCHAR
STARTCHAR Ocircumflex
ENCODING 212
SWIDTH 777 0
DWIDTH 19 0
BBX 18 23 3 0
BITMAP
007800
00f800
01d800
038c00
000000
00fc00
03ff00
0f0700
1c0380
380180
3801c0
7001c0
6001c0
e00180
e00380
e00380
e00300
e00700
e00e00
701c00
787800
3ff000
0fc000
ENDCHAR
STARTCHAR Odoubleacute
ENCODING 213
SWIDTH 777 0
DWIDTH 19 0
BBX 18 23 3 0
BITMAP
001b00
003600
006c00
00d800
000000
00fc00
03ff00
0f0700
1c0380
380180
3801c0
7001c0
6001c0
e00180
e00380
e00380
e00300
e00700
e00e00
701c00
787800
3ff000
0fc000
ENDCHAR
STARTCHAR Odiaeresis
ENCODING 214
SWIDTH 777 0
DWIDTH 19 0
BBX 18 21 3 0
BITMAP
018c00
018c00
000000
00fc00
03ff00
0f0700
1c0380
380180
3801c0
7001c0
6001c0
e00180
e00380
e00380
e00300
e00700
e00e00
701c00
787800
3ff000
0fc000
ENDCHAR
STARTCHAR multiply
ENCODING 215
SWIDTH 633 0
DWIDTH 16 0
BBX 17 15 1 0
BITMAP
300100
180380
1c0700
0e0e00
061800
037000
01e000
01c000
03e000
076000
0c3000
383800
701c00
e00c00
400600
ENDCHAR
STARTCHAR Rcaron
ENCODING 216
SWIDTH 632 0
DWIDTH 16 0
BBX 14 23 2 0
BITMAP
0638
0370
0360
01c0
0000
0ff0
1ffc
1c1c
1c1c
181c
181c
3838
3870
3fe0
3f80
31c0
71c0
70e0
60e0
6070
6070
e038
e038
ENDCHAR
STARTCHAR Uring
ENCODING 217
SWIDTH 693 0
DWIDTH 17 0
BBX 15 23 3 0
BITMAP
00c0
0120
0120
00c0
0000
3806
380e
380e
300c
300c
700c
701c
701c
6018
6018
e018
e038
e030
e030
e070
f0e0
7fc0
3f80
ENDCHAR
STARTCHAR Uacute
ENCODING 218
SWIDTH 693 0
DWIDTH 17 0
BBX 15 23 3 0
BITMAP
0038
0060
00c0
0180
0000
3806
380e
380e
300c
300c
700c
701c
701c
6018
6018
e018
e038
e030
e030
e070
f0e0
7fc0
3f80
ENDCHAR
STARTCHAR Udoubleacute
ENCODING 219
SWIDTH 693 0
DWIDTH 17 0
BBX 15 23 3 0
BITMAP
006c
00d8
01b0
0360
0000
3806
380e
380e
300c
300c
700c
701c
701c
6018
6018
e018
e038
e030
e030
e070
f0e0
7fc0
3f80
ENDCHAR
STARTCHAR Udiaeresis
ENCODING 220
SWIDTH 693 0
DWIDTH 17 0
BBX 15 21 3 0
BITMAP
0630
0630
0000
3806
380e
380e
300c
300c
700c
701c
701c
6018
6018
e018
e038
e030
e030
e070
f0e0
7fc0
3f80
ENDCHAR
STARTCHAR Yacute
ENCODING 221
SWIDTH 608 0
DWIDTH 15 0
BBX 15 23 4 0
BITMAP
0070
00c0
0180
0300
0000
e00e
601c
7038
3030
3860
38c0
1dc0
1f80
0f00
0e00
0e00
0e00
0c00
0c00
1c00
1c00
1c00
1800
ENDCHAR
STARTCHAR Tcedilla
ENCODING 222
SWIDTH 623 0
DWIDTH 16 0
BBX 16 23 3 -5
BITMAP
ffff
ffff
0380
0380
0380
0300
0300
0700
0700
0700
0600
0600
0e00
0e00
0e00
0c00
0c00
1c00
0080
0180
00c0
00c0
0380
ENDCHAR
STARTCHAR ssharp
ENCODING 223
SWIDTH 595 0
DWIDTH 15 0
BBX 13 25 2 -5
BITMAP
01e0
07f0
0630
0c30
0c30
0c60
1cc0
1d80
1b80
1b80
1b80
19c0
38e0
3870
3038
3018
3018
7238
77f0
63e0
6000
6000
e000
e000
c000
ENDCHAR
STARTCHAR racute
ENCODING 224
SWIDTH 478 0
DWIDTH 12 0
BBX 12 18 3 0
BITMAP
0070
00c0
0180
0300
0000
38e0
39e0
3300
3600
3c00
7c00
7800
7000
6000
6000
e000
e000
e000
ENDCHAR
STARTCHAR aacute
ENCODING 225
SWIDTH 608 0
DWIDTH 15 0
BBX 13 18 2 0
BITMAP
0038
0060
00c0
0180
0000
03f8
07f8
1e38
3830
3030
7070
60f0
e1f0
e1e0
e360
e760
fce0
78e0
ENDCHAR
STARTCHAR acircumflex
ENCODING 226
SWIDTH 608 0
DWIDTH 15 0
BBX 13 18 2 0
BITMAP
00f0
01f0
03b0
0718
0000
03f8
07f8
1e38
3830
3030
7070
60f0
e1f0
e1e0
e360
e760
fce0
78e0
ENDCHAR
STARTCHAR abreve
ENCODING 227
SWIDTH 608 0
DWIDTH 15 0
BBX 14 18 2 0
BITMAP
030c
0308
01f8
01e0
0000
03f8
07f8
1e38
3830
3030
7070
60f0
e1f0
e1e0
e360
e760
fce0
78e0
ENDCHAR
STARTCHAR adiaeresis
ENCODING 228
SWIDTH 608 0
DWIDTH 15 0
BBX 13 16 2 0
BITMAP
0318
0318
0000
03f8
07f8
1e38
3830
3030
7070
60f0
e1f0
e1e0
e360
e760
fce0
78e0
ENDCHAR
STARTCHAR lacute
ENCODING 229
SWIDTH 289 0
DWIDTH 7 0
BBX 10 23 3 0
BITMAP
01c0
0300
0600
0c00
0000
0c00
1c00
1c00
1800
1800
1800
3800
3800
3000
3000
3000
7000
7000
6000
6000
6000
e000
e000
ENDCHAR
STARTCHAR cacute
ENCODING 230
SWIDTH 503 0
DWIDTH 13 0
BBX 13 18 2 0
BITMAP
0038
0060
00c0
0180
0000
03e0
0fe0
1c20
3800
7000
6000
e000
e000
e000
e000
e0c0
7f80
3f00
ENDCHAR
STARTCHAR ccedilla
ENCODING 231
SWIDTH 503 0
DWIDTH 13 0
BBX 11 18 2 -5
BITMAP
03e0
0fe0
1c20
3800
7000
6000
e000
e000
e000
e000
e0c0
7f80
3f00
0800
1800
0c00
0c00
3800
ENDCHAR
STARTCHAR ccaron
ENCODING 232
SWIDTH 503 0
DWIDTH 13 0
BBX 12 18 2 0
BITMAP
0c70
06e0
06c0
0380
0000
03e0
0fe0
1c20
3800
7000
6000
e000
e000
e000
e000
e0c0
7f80
3f00
ENDCHAR
STARTCHAR eacute
ENCODING 233
SWIDTH 529 0
DWIDTH 13 0
BBX 12 18 2 0
BITMAP
0070
00c0
0180
0300
0000
07c0
0fe0
18e0
30e0
60c0
6180
ff00
fc00
c000
e020
e0c0
7fc0
3f00
ENDCHAR
STARTCHAR eogonek
ENCODING 234
SWIDTH 529 0
DWIDTH 13 0
BBX 11 17 2 -4
BITMAP
07c0
0fe0
18e0
30e0
60c0
6180
ff00
fc00
c000
e020
e0c0
7fc0
3f00
0600
0c00
0c00
0700
ENDCHAR
STARTCHAR ediaeresis
ENCODING 235
SWIDTH 529 0
DWIDTH 13 0
BBX 12 16 2 0
BITMAP
0630
0630
0000
07c0
0fe0
18e0
30e0
60c0
6180
ff00
fc00
c000
e020
e0c0
7fc0
3f00
ENDCHAR
STARTCHAR ecaron
ENCODING 236
SWIDTH 529 0
DWIDTH 13 0
BBX 12 18 2 0
BITMAP
0c70
06e0
06c0
0380
0000
07c0
0fe0
18e0
30e0
60c0
6180
ff00
fc00
c000
e020
e0c0
7fc0
3f00
ENDCHAR
STARTCHAR iacute
ENCODING 237
SWIDTH 289 0
DWIDTH 7 0
BBX 9 18 2 0
BITMAP
0380
0600
0c00
1800
0000
1800
3800
3800
3000
3000
3000
7000
7000
6000
6000
6000
e000
e000
ENDCHAR
STARTCHAR icircumflex
ENCODING 238
SWIDTH 289 0
DWIDTH 7 0
BBX 9 18 2 0
BITMAP
0f00
1f00
3b00
7180
0000
1800
3800
3800
3000
3000
3000
7000
7000
6000
6000
6000
e000
e000
ENDCHAR
STARTCHAR dcaron
ENCODING 239
SWIDTH 800 0
DWIDTH 20 0
BBX 20 20 2 0
BITMAP
000070
000070
000e70
000e60
000c60
000cc0
001c00
01fc00
07fc00
0e1800
1c1800
383800
703800
607000
e0f000
e1f000
e3f000
e77000
fe6000
786000
ENDCHAR
STARTCHAR dstroke
ENCODING 240
SWIDTH 680 0
DWIDTH 17 0
BBX 17 18 2 0
BITMAP
000e00
000e00
000c00
00ff80
00ff80
01fc00
07fc00
0e1800
1c1800
383800
703800
607000
e0f000
e1f000
e3f000
e77000
fe6000
786000
ENDCHAR
STARTCHAR nacute
ENCODING 241
SWIDTH 620 0
DWIDTH 16 0
BBX 13 18 2 0
BITMAP
0038
0060
00c0
0180
0000
1870
39f8
3bb8
3738
3e38
3c38
7830
7030
7070
6070
6060
e060
e060
ENDCHAR
STARTCHAR ncaron
ENCODING 242
SWIDTH 620 0
DWIDTH 16 0
BBX 13 18 2 0
BITMAP
0c70
06e0
06c0
0380
0000
1870
39f8
3bb8
3738
3e38
3c38
7830
7030
7070
6070
6060
e060
e060
ENDCHAR
STARTCHAR oacute
ENCODING 243
SWIDTH 566 0
DWIDTH 14 0
BBX 13 18 2 0
BITMAP
0038
0060
00c0
0180
0000
07c0
0fe0
1c70
3030
7030
6030
e030
e070
e060
e0e0
e1c0
7f80
3e00
ENDCHAR
STARTCHAR ocircumflex
ENCODING 244
SWIDTH 566 0
DWIDTH 14 0
BBX 12 18 2 0
BITMAP
01e0
03e0
0760
0e30
0000
07c0
0fe0
1c70
3030
7030
6030
e030
e070
e060
e0e0
e1c0
7f80
3e00
ENDCHAR
STARTCHAR odoubleacute
ENCODING 245
SWIDTH 566 0
DWIDTH 14 0
BBX 13 18 2 0
BITMAP
00d8
01b0
0360
06c0
0000
07c0
0fe0
1c70
3030
7030
6030
e030
e070
e060
e0e0
e1c0
7f80
3e00
ENDCHAR
STARTCHAR odiaeresis
ENCODING 246
SWIDTH 566 0
DWIDTH 14 0
BBX 12 16 2 0
BITMAP
0630
0630
0000
07c0
0fe0
1c70
3030
7030
6030
e030
e070
e060
e0e0
e1c0
7f80
3e00
ENDCHAR
STARTCHAR division
ENCODING 247
SWIDTH 633 0
DWIDTH 16 0
BBX 15 13 2 0
BITMAP
01c0
01c0
0000
0000
0000
0000
fffe
fffe
0000
0000
0000
0700
0700
ENDCHAR
STARTCHAR rcaron
ENCODING 248
SWIDTH 478 0
DWIDTH 12 0
BBX 11 18 3 0
BITMAP
18e0
0dc0
0d80
0700
0000
38e0
39e0
3300
3600
3c00
7c00
7800
7000
6000
6000
e000
e000
e000
ENDCHAR
STARTCHAR uring
ENCODING 249
SWIDTH 620 0
DWIDTH 16 0
BBX 13 18 3 0
BITMAP
0180
0240
0240
0180
0000
3018
3038
3030
3030
6070
6070
60f0
61e0
e3e0
c760
eee0
fce0
70c0
ENDCHAR
STARTCHAR uacute
ENCODING 250
SWIDTH 620 0
DWIDTH 16 0
BBX 13 18 3 0
BITMAP
0038
0060
00c0
0180
0000
3018
3038
3030
3030
6070
6070
60f0
61e0
e3e0
c760
eee0
fce0
70c0
ENDCHAR
STARTCHAR udoubleacute
ENCODING 251
SWIDTH 620 0
DWIDTH 16 0
BBX 13 18 3 0
BITMAP
00d8
01b0
0360
06c0
0000
3018
3038
3030
3030
6070
6070
60f0
61e0
e3e0
c760
eee0
fce0
70c0
ENDCHAR
STARTCHAR udiaeresis
ENCODING 252
SWIDTH 620 0
DWIDTH 16 0
BBX 13 16 3 0
BITMAP
0630
0630
0000
3018
3038
3030
3030
6070
6070
60f0
61e0
e3e0
c760
eee0
fce0
70c0
ENDCHAR
STARTCHAR yacute
ENCODING 253
SWIDTH 548 0
DWIDTH 14 0
BBX 14 23 2 -5
BITMAP
0070
00c0
0180
0300
0000
601c
7018
7030
7070
3060
30c0
31c0
3980
3b80
3b00
1e00
1e00
1c00
1800
3800
3000
6000
e000
ENDCHAR
STARTCHAR tcedilla
ENCODING 254
SWIDTH 383 0
DWIDTH 10 0
BBX 8 21 3 -5
BITMAP
18
18
18
ff
ff
30
30
30
70
70
60
60
e0
60
7c
38
08
18
0c
0c
38
ENDCHAR
STARTCHAR abovedot
ENCODING 255
SWIDTH 566 0
DWIDTH 14 0
BBX 3 2 9 16
BITMAP
e0
e0
ENDCHAR
ENDFONT
